<svg width="22" height="19" viewBox="0 0 22 19" fill="none" xmlns="http://www.w3.org/2000/svg">
<g clip-path="url(#clip0_10_364)">
<path d="M11.0001 19C10.7926 19.0043 10.5891 18.919 10.4164 18.7554L1.70164 9.99537C-0.566073 7.71106 -0.566073 3.99646 1.70164 1.70386C2.91964 0.551888 4.35674 -0.0427311 5.81971 -5.04733e-05C7.28361 -0.0390574 8.72078 0.559934 9.93778 1.71629L11.0001 2.78175L12.0625 1.71629C14.3331 -0.568019 18.028 -0.568019 20.2986 1.71629C22.5692 4.0006 22.5692 7.71106 20.2986 10.0078L11.5868 18.7554C11.4131 18.9191 11.2086 19.0044 11.0001 19ZM5.81971 1.65825C4.77166 1.63531 3.74387 2.06939 2.87489 2.90198C1.24926 4.53541 1.24926 7.19284 2.87489 8.82627L11.0001 16.9975L19.1283 8.81797C20.751 7.18455 20.751 4.52712 19.1283 2.89369C17.5056 1.26026 14.8614 1.24368 13.2328 2.90198L11.5868 4.56028C11.4128 4.71969 11.2101 4.80447 11.003 4.80447C10.796 4.80447 10.5933 4.71969 10.4193 4.56028L8.75576 2.90198C7.88917 2.07207 6.86475 1.63812 5.81971 1.65825Z" fill="white"/>
</g>
<defs>
<clipPath id="clip0_10_364">
<rect width="22" height="19" fill="white"/>
</clipPath>
</defs>
</svg>
