<svg width="34" height="29" viewBox="0 0 34 29" fill="none" xmlns="http://www.w3.org/2000/svg">
<g clip-path="url(#clip0_112_84)">
<path d="M17.0001 29C16.6794 29.0066 16.3648 28.8764 16.098 28.6267L2.6297 15.2562C-0.87494 11.7696 -0.87494 6.09995 2.6297 2.60071C4.51207 0.842443 6.73304 -0.0651329 8.99399 1.13023e-05C11.2564 -0.0595255 13.4775 0.854724 15.3583 2.61969L17.0001 4.24592L18.6419 2.61969C22.1511 -0.866888 27.8613 -0.866888 31.3705 2.61969C34.8796 6.10627 34.8796 11.7696 31.3705 15.2752L17.9067 28.6267C17.6383 28.8766 17.3222 29.0067 17.0001 29ZM8.99399 2.5311C7.37429 2.49609 5.78587 3.15864 4.44292 4.42942C1.93058 6.92255 1.93058 10.9786 4.44292 13.4718L17.0001 25.9437L29.5618 13.4591C32.0696 10.966 32.0696 6.9099 29.5618 4.41677C27.054 1.92364 22.9675 1.89833 20.4506 4.42942L17.9067 6.96052C17.6378 7.20383 17.3246 7.33323 17.0046 7.33323C16.6846 7.33323 16.3714 7.20383 16.1025 6.96052L13.5315 4.42942C12.1923 3.16272 10.6091 2.50038 8.99399 2.5311Z" fill="#E13B3F"/>
</g>
<defs>
<clipPath id="clip0_112_84">
<rect width="34" height="29" fill="white"/>
</clipPath>
</defs>
</svg>
