<svg width="17" height="19" viewBox="0 0 17 19" fill="none" xmlns="http://www.w3.org/2000/svg">
<g clip-path="url(#clip0_10_368)">
<path d="M16.1238 19.0002H0.863994C0.635375 19.0002 0.416074 18.9098 0.254131 18.7488C0.0921879 18.5879 0.000804998 18.3695 0 18.1415L0 15.0224C0 13.252 0.705144 11.5541 1.96031 10.3023C3.21547 9.05044 4.91784 8.34717 6.69291 8.34717H10.3071C12.0822 8.34717 13.7845 9.05044 15.0397 10.3023C16.2949 11.5541 17 13.252 17 15.0224V18.1415C16.9996 18.2554 16.9766 18.3681 16.9322 18.4731C16.8879 18.5781 16.8231 18.6733 16.7416 18.7532C16.6601 18.833 16.5635 18.896 16.4575 18.9384C16.3515 18.9808 16.2381 19.0018 16.1238 19.0002ZM1.72799 17.295H15.272V15.0224C15.2712 13.709 14.748 12.4497 13.8171 11.5207C12.8863 10.5918 11.6239 10.0692 10.3071 10.0675H6.69291C5.3761 10.0692 4.11373 10.5918 3.18289 11.5207C2.25204 12.4497 1.72879 13.709 1.72799 15.0224V17.295Z" fill="white"/>
<path d="M8.54871 9.67907C7.58406 9.68205 6.64027 9.39911 5.83716 8.86614C5.03404 8.33318 4.40781 7.57424 4.03797 6.68566C3.66813 5.79708 3.57135 4.81893 3.75993 3.8754C3.9485 2.93186 4.41392 2.06548 5.09711 1.38625C5.78029 0.70701 6.65042 0.245545 7.59705 0.0604342C8.54368 -0.124677 9.52412 -0.0250864 10.4139 0.346563C11.3037 0.718213 12.0627 1.34516 12.5945 2.14782C13.1264 2.95048 13.4071 3.89265 13.4011 4.85473C13.3931 6.13438 12.8788 7.35912 11.9701 8.26257C11.0614 9.16602 9.83178 9.67509 8.54871 9.67907ZM8.54871 1.72346C7.93068 1.72346 7.32651 1.9061 6.81248 2.2483C6.29845 2.5905 5.89759 3.07692 5.66053 3.64616C5.42347 4.2154 5.36083 4.84193 5.48052 5.44665C5.60021 6.05137 5.89686 6.60717 6.33302 7.04386C6.76919 7.48056 7.3253 7.77858 7.93115 7.9003C8.53701 8.02202 9.16544 7.96198 9.73711 7.72776C10.3088 7.49354 10.7981 7.09564 11.1432 6.5843C11.4883 6.07297 11.6737 5.47111 11.6761 4.85473C11.6773 4.44421 11.5973 4.03748 11.4407 3.65783C11.2842 3.27818 11.054 2.93305 10.7635 2.64221C10.4731 2.35136 10.1279 2.12051 9.74786 1.96286C9.36781 1.80521 8.96032 1.72386 8.54871 1.72346Z" fill="white"/>
</g>
<defs>
<clipPath id="clip0_10_368">
<rect width="17" height="19" fill="white"/>
</clipPath>
</defs>
</svg>
