<svg width="72" height="63" viewBox="0 0 72 63" fill="none" xmlns="http://www.w3.org/2000/svg">
<path d="M71.7918 30.8838L66.8906 25.1246L68.5201 18.0367C68.6135 17.6338 68.3931 17.2241 67.9839 17.0394L60.7719 13.7624L58.8026 6.74134C58.6906 6.34269 58.2952 6.06244 57.8358 6.05337L49.7505 5.89105L44.5692 0.33046C44.2758 0.0120116 43.7769 -0.085851 43.364 0.0836335L36 3.08857L28.6371 0.0813112C28.2241 -0.0876967 27.7253 0.0125617 27.4318 0.328137L22.2522 5.88921L14.1678 6.04963C13.709 6.0587 13.3131 6.33895 13.201 6.7376L11.2306 13.7586L4.01813 17.0333C3.60783 17.2181 3.38748 17.6277 3.48085 18.0282L5.10924 25.1209L0.208077 30.8844C-0.0693591 31.2114 -0.0693591 31.6635 0.208077 31.9886L5.10924 37.7478L3.47866 44.8357C3.38529 45.2387 3.60565 45.6483 4.01488 45.8331L11.2268 49.1077L13.1961 56.1288C13.3082 56.5274 13.7035 56.8077 14.1629 56.8167L22.2482 56.979L27.4305 62.5421C27.6284 62.756 27.9181 62.8715 28.2127 62.8715C28.3557 62.8715 28.4997 62.8448 28.6358 62.7894L36.0008 59.784L43.3622 62.7894C43.7779 62.9608 44.273 62.8605 44.5675 62.5426L49.7472 56.9815L57.8315 56.8235C58.2904 56.8125 58.6862 56.5317 58.7983 56.1336L60.7687 49.1144L67.9832 45.8374C68.3925 45.6526 68.6128 45.243 68.5195 44.8424L66.8911 37.7498L71.7933 31.9887C72.0692 31.663 72.0692 31.209 71.7917 30.8839L71.7918 30.8838ZM64.9881 36.9748C64.8104 37.1839 64.7416 37.4532 64.8013 37.7096L66.3662 44.5258L59.4302 47.6759C59.1677 47.7938 58.9751 48.0096 58.903 48.266L57.0101 55.0134L49.2385 55.1672C48.944 55.1738 48.6666 55.2942 48.4787 55.4966L43.4997 60.841L36.4233 57.9515C36.1549 57.8446 35.846 57.8446 35.5776 57.9515L28.4975 60.841L23.5168 55.4938C23.329 55.2914 23.0515 55.171 22.757 55.1667L14.9855 55.0087L13.0925 48.2593C13.0205 48.0034 12.8273 47.7876 12.5654 47.6692L5.63191 44.5215L7.19788 37.7096C7.25764 37.4513 7.18935 37.182 7.01114 36.9729L2.30051 31.4367L7.01114 25.8956C7.18882 25.6865 7.25764 25.4172 7.19788 25.1609L5.633 18.3446L12.5675 15.1969C12.8311 15.079 13.0243 14.8632 13.0963 14.6068L14.9893 7.85736L22.7608 7.70363C23.0553 7.69694 23.3328 7.57663 23.5206 7.3742L28.4985 2.02946L35.5765 4.92122C35.8448 5.02816 36.1538 5.02816 36.4221 4.92122L43.5012 2.03178L48.4818 7.37653C48.6697 7.57895 48.9471 7.69926 49.2416 7.70357L57.0132 7.8592L58.9061 14.611C58.9782 14.8669 59.1708 15.0827 59.4333 15.2011L66.3667 18.3511L64.8008 25.163C64.741 25.4212 64.8093 25.6905 64.9875 25.8996L69.6981 31.4359L64.9881 36.9748Z" fill="#0E9F2E" fill-opacity="0.6"/>
<path d="M35.3448 9.33496C21.7255 9.33496 10.6443 19.2502 10.6443 31.4387C10.6443 43.6272 21.7249 53.5425 35.3448 53.5425C48.964 53.5425 60.0452 43.6272 60.0452 31.4387C60.0458 19.2504 48.9651 9.33496 35.3448 9.33496ZM35.3448 51.7165C22.8487 51.7165 12.6822 42.6205 12.6822 31.4387C12.6822 20.2569 22.8484 11.1609 35.3448 11.1609C47.8411 11.1609 58.0074 20.2569 58.0074 31.4387C58.0079 42.6205 47.8417 51.7165 35.3448 51.7165Z" fill="#0E9F2E" fill-opacity="0.6"/>
<path d="M41.5403 24.8788L42.0589 20.854C42.1534 20.1174 42.044 19.3668 41.742 18.6879C40.3025 15.4466 37.8759 14.9677 36.6023 15.0528C35.937 15.0685 35.3048 15.3354 34.8693 15.7875C34.435 16.2373 34.2312 16.8341 34.3086 17.4213L34.7215 20.6023C34.7898 21.1208 34.6804 21.6398 34.4217 22.0762L30.808 27.706C30.6138 28.0311 30.3278 28.3094 30.0279 28.4808L29.8369 28.5763C29.6843 28.244 29.3215 28.0087 28.8963 28.0087H21.6656C21.1033 28.0087 20.6471 28.4183 20.6471 28.9215V41.4834C20.6471 41.9866 21.1038 42.3963 21.6656 42.3963H28.8963C29.4464 42.3963 29.8892 42.0024 29.9079 41.514L30.4622 41.8043C31.6825 42.4521 33.0809 42.7949 34.5039 42.7949L46.0114 42.7925C46.045 42.7949 46.0786 42.7949 46.1122 42.7949C47.8227 42.7949 49.2666 41.662 49.4933 40.1256C49.5456 39.7718 49.5306 39.4243 49.4549 39.0905C50.6041 38.7076 51.4872 37.7814 51.659 36.6193C51.7545 35.9648 51.6067 35.3127 51.2674 34.754C51.469 34.6385 51.6579 34.5024 51.8318 34.3487C52.4822 33.77 52.8408 32.9975 52.8408 32.1759C52.8408 31.3371 52.439 30.5933 51.819 30.0356C51.97 29.8976 52.1546 29.7921 52.2752 29.6293C52.8013 28.9146 52.9683 28.0557 52.7442 27.2074C52.3835 25.8362 51.0176 24.8789 49.4218 24.8789L41.5403 24.8788ZM27.8775 40.5708H22.684V29.8339H27.8775V40.5708ZM50.76 27.6263C50.8533 27.9801 50.7861 28.3363 50.5732 28.6261C50.3731 28.8968 50.0584 29.0801 49.7089 29.1469H42.4356C41.8732 29.1469 41.4171 29.5566 41.4171 30.0598C41.4171 30.563 41.8738 30.9726 42.4356 30.9726H49.7116C50.3444 31.0948 50.8022 31.5895 50.8022 32.1772C50.8022 32.509 50.6565 32.8227 50.394 33.0566C50.1326 33.2881 49.7868 33.4151 49.4198 33.4151H49.4059L41.9758 33.4142C41.4135 33.4142 40.9573 33.8238 40.9573 34.327C40.9573 34.8302 41.414 35.2399 41.9758 35.2399H49.0431C49.4508 35.502 49.7042 35.9269 49.6386 36.3819C49.5377 37.0565 48.8574 37.5349 48.0902 37.4485C48.0753 37.4466 48.0619 37.4566 48.0465 37.4556C48.0166 37.4532 47.991 37.4399 47.9611 37.4399L41.478 37.4265H41.4753C40.9129 37.4265 40.4578 37.8338 40.4568 38.337C40.4557 38.8402 40.9108 39.2498 41.4732 39.2517L47.3683 39.2637C47.4552 39.4585 47.5059 39.6666 47.4734 39.8881C47.3789 40.5226 46.7728 41.0836 46.0414 40.97H34.504C33.4454 40.97 32.4067 40.7165 31.4974 40.2352L30.449 39.6833C30.2889 39.5983 30.0585 39.5616 29.9155 39.5516V30.5119C30.0707 30.5038 30.2244 30.4742 30.361 30.4069L31.0765 30.0464C31.721 29.6793 32.2497 29.1651 32.5918 28.5883L36.2055 22.9586C36.6771 22.1684 36.8633 21.28 36.7476 20.3919L36.3346 17.2109C36.3197 17.0972 36.3767 17.017 36.413 16.9817C36.4488 16.944 36.5299 16.8795 36.6606 16.8748C38.059 16.8838 39.101 17.6783 39.8485 19.3612C40.0278 19.7618 40.0913 20.2096 40.0353 20.6479L39.4094 25.5653C39.3337 25.837 39.403 26.1306 39.5962 26.3512C39.7888 26.5736 40.0902 26.7049 40.4034 26.7049H49.4214C50.0563 26.7045 50.6197 27.0921 50.76 27.6264L50.76 27.6263Z" fill="#0E9F2E" fill-opacity="0.6"/>
</svg>
