<svg width="62" height="57" viewBox="0 0 62 57" fill="none" xmlns="http://www.w3.org/2000/svg">
<path d="M16.9927 41.3786C16.32 40.7601 16.32 39.7577 16.9927 39.1392L18.6832 37.5851V37.5855C17.959 36.6061 17.4804 35.4914 17.2811 34.3217L17.11 33.2534H17.1105C16.9716 32.3884 17.6222 31.5839 18.5632 31.4562C19.5045 31.329 20.3796 31.9272 20.518 32.7921L20.6891 33.8608C20.9923 35.4694 22.1057 36.8512 23.6919 37.5859C24.851 38.1037 25.9417 38.0922 26.6876 37.5563C27.4982 36.9727 27.7568 35.8745 27.3786 34.6181L25.5425 28.5242C24.7919 26.0286 25.516 23.6235 27.4319 22.2464C29.2277 20.956 31.7024 20.8124 34.0526 21.8625V21.863C34.4308 22.0348 34.794 22.2332 35.14 22.4559L36.8113 20.9193V20.9189C37.4846 20.3035 38.5724 20.3048 39.2437 20.922C39.915 21.5391 39.9165 22.5394 39.2471 23.1582L37.5508 24.7177V24.7173C38.2764 25.6945 38.7574 26.8077 38.9592 27.9762L39.1303 29.0445C39.2673 29.909 38.6166 30.7122 37.6767 30.8394C36.7363 30.9666 35.8618 30.3698 35.7224 29.5057L35.5513 28.437C35.2491 26.828 34.1352 25.4462 32.549 24.7115C31.3904 24.1937 30.2991 24.2048 29.5533 24.7411C28.7422 25.3243 28.4841 26.4221 28.8618 27.679L30.6984 33.7725C31.449 36.2673 30.7249 38.6723 28.8095 40.0502C27.0137 41.3406 24.539 41.4847 22.1883 40.4346V40.435C21.8087 40.2636 21.444 40.0661 21.097 39.8443L19.4282 41.3786H19.4287C18.7559 41.9971 17.6656 41.9971 16.9928 41.3786L16.9927 41.3786ZM1.34506 36.5964C0.483945 35.8029 0 34.7277 0 33.6063C0 32.4851 0.483896 31.4098 1.34506 30.6163L28.2991 5.82797C29.6215 4.64442 31.0891 3.60665 32.672 2.73502C40.5047 -1.68544 49.7601 -0.685221 56.2529 5.28409C62.7449 11.2525 63.8333 19.7626 59.0256 26.9623C58.0775 28.418 56.9482 29.7672 55.6608 30.983L28.6982 55.7634C27.8347 56.5551 26.6651 57 25.4459 57C24.2263 57 23.0567 56.5551 22.1936 55.7634L1.34506 36.5964ZM3.77992 34.3579L24.6287 53.5254C25.0804 53.9398 25.8118 53.9398 26.2634 53.5254L53.2261 28.7449V28.7454C54.3227 27.7045 55.2838 26.5511 56.0905 25.3066C60.8834 18.128 57.8617 11.2397 53.8186 7.52225C49.7744 3.80422 42.282 1.02625 34.4743 5.43303C33.1211 6.17522 31.866 7.05878 30.7338 8.06646L3.77979 32.8548C3.32905 33.2701 3.32905 33.9425 3.77979 34.3577L3.77992 34.3579ZM41.7095 18.6556C40.6215 17.6554 40.0104 16.2987 40.0099 14.8841C40.0099 13.4691 40.6216 12.1124 41.7095 11.1121C42.7973 10.1119 44.2731 9.55007 45.8118 9.55007C47.3505 9.55007 48.8262 10.112 49.9146 11.1121C51.0026 12.1123 51.6137 13.4691 51.6137 14.8841C51.6137 16.2987 51.0025 17.6554 49.9146 18.6556C48.8253 19.6545 47.35 20.2151 45.8118 20.2151C44.2736 20.2151 42.7984 19.6545 41.7095 18.6556ZM43.6571 16.8647C44.2289 17.3899 45.004 17.685 45.8118 17.685C46.6201 17.685 47.3951 17.3895 47.9666 16.8642C48.5379 16.3385 48.8589 15.6264 48.8589 14.8832C48.8584 14.1402 48.5374 13.4276 47.9661 12.9022C47.3947 12.377 46.6197 12.0819 45.8113 12.0819C45.0031 12.0819 44.228 12.377 43.6566 12.9027C43.0862 13.4284 42.7657 14.141 42.7657 14.8837C42.7657 15.6267 43.0867 16.3389 43.6571 16.8651V16.8647Z" fill="#0E9F2E" fill-opacity="0.6"/>
</svg>
