<svg width="93" height="56" viewBox="0 0 93 56" fill="none" xmlns="http://www.w3.org/2000/svg">
<path d="M6.37431 50.6154H10.0804C10.9039 53.6754 14.5381 56.0001 18.8895 56.0001C23.2402 56.0001 26.8743 53.6883 27.6986 50.6154H60.6584C61.482 53.6754 65.1161 56.0001 69.4675 56.0001C73.8182 56.0001 77.4524 53.6883 78.2767 50.6154H79.6374C84.2031 50.6154 87.9273 47.8361 87.9273 44.4287V40.6473C87.9273 39.5915 87.5511 38.5765 86.8707 37.6679C86.8168 37.5745 86.7456 37.494 86.6737 37.414C86.6017 37.3206 86.5305 37.2267 86.4586 37.1333L77.7214 27.7132C76.1636 26.0428 73.6211 25.0407 70.9002 25.0407H54.6075V16.8901C54.6075 14.2712 51.7428 12.1333 48.2337 12.1333L6.35582 12.1339C2.84672 12.121 0 14.2455 0 16.8643V45.8599C0 48.4781 2.86475 50.6161 6.37386 50.6161L6.37431 50.6154ZM18.8888 53.3281C15.8989 53.3281 13.4815 51.524 13.4815 49.2927C13.4815 47.0615 15.8989 45.2574 18.8888 45.2574C21.8606 45.2574 24.278 47.0615 24.296 49.2793V49.2927C24.296 51.5105 21.8607 53.3281 18.8888 53.3281V53.3281ZM69.4488 53.3281C66.477 53.3281 64.0415 51.524 64.0415 49.2927C64.0415 47.0615 66.4589 45.2574 69.4488 45.2574C72.4205 45.2574 74.838 47.0615 74.856 49.2793V49.2927V49.3061C74.856 51.5105 72.4386 53.3281 69.4488 53.3281V53.3281ZM74.766 29.2229L81.7842 36.7992H70.4514V27.7136H70.8988C72.4386 27.713 73.8886 28.2745 74.766 29.2229ZM66.8704 27.713V38.1352C66.8704 38.87 67.6759 39.4711 68.6605 39.4711H84.0578C84.2368 39.8452 84.344 40.2462 84.344 40.6472V44.4286C84.344 46.3662 82.2316 47.9427 79.6352 47.9427H78.2744C77.4329 44.8827 73.8167 42.5848 69.4653 42.5848C65.1147 42.5848 61.4978 44.8966 60.6562 47.9427H54.2645C54.4616 47.5283 54.5867 47.0877 54.5867 46.6202L54.5882 27.7131L66.8704 27.713ZM3.58073 16.8636C3.58073 15.7144 4.83436 14.7928 6.35552 14.7928H48.2142C49.7541 14.7928 51.007 15.7284 51.007 16.8771V46.6199C51.007 47.3548 50.2195 47.9425 49.2349 47.9425H27.6965C26.855 44.8825 23.2388 42.5846 18.8874 42.5846C14.5367 42.5846 10.9198 44.8963 10.0783 47.9425H6.37292C4.83306 47.9425 3.57952 47.0069 3.57952 45.8578L3.58073 16.8636Z" fill="#0E9F2E" fill-opacity="0.6"/>
<path d="M79.05 0C71.3638 0 65.1 4.59909 65.1 10.2667C65.1 15.9343 71.349 20.5334 79.05 20.5334C86.7361 20.5334 93 15.9343 93 10.2667C92.9994 4.59862 86.7509 0 79.05 0ZM79.05 18.363C72.9771 18.363 68.0339 14.725 68.0339 10.2556C68.0339 5.78616 72.9771 2.14814 79.05 2.14814C85.1229 2.14814 90.0661 5.79703 90.0661 10.2665C90.0661 14.7359 85.1229 18.363 79.05 18.363Z" fill="#0E9F2E" fill-opacity="0.6"/>
<path d="M83.1211 8.94724H80.6293V5.79299C80.6293 5.17347 79.9887 4.66663 79.2056 4.66663C78.4225 4.66663 77.7818 5.17347 77.7818 5.79299V10.0736C77.7818 10.6931 78.4225 11.2 79.2056 11.2H83.1217C83.9048 11.2 84.5454 10.6931 84.5454 10.0736C84.5454 9.45408 83.9042 8.94724 83.1211 8.94724H83.1211Z" fill="#0E9F2E" fill-opacity="0.6"/>
</svg>
