<svg width="27" height="29" viewBox="0 0 27 29" fill="none" xmlns="http://www.w3.org/2000/svg">
<path d="M18.313 29C20.4988 28.9997 22.4535 28.2118 23.9657 26.5864L26.1741 24.2131C27.2754 23.0289 27.2754 21.1017 26.1738 19.9181L22.8184 16.3117C22.2443 15.6944 21.4518 15.374 20.6397 15.428C19.8294 15.4839 19.0799 15.9122 18.5837 16.6026L16.4074 19.6317C14.8245 18.7182 13.3468 17.5295 12.0094 16.0916C10.6788 14.6615 9.57665 13.0821 8.72885 11.392L11.5542 9.04711C12.1966 8.51407 12.5951 7.70893 12.6471 6.83825C12.6991 5.96733 12.3995 5.11358 11.8251 4.4962L8.47006 0.889805C7.93639 0.315884 7.22677 0 6.4717 0C5.71694 0 5.00735 0.315867 4.47394 0.889805L2.71749 2.77702C2.53623 2.94245 2.38557 3.09064 2.24561 3.24076C-1.84468 7.63639 -0.234957 15.5066 6.15904 22.3786C10.1892 26.7106 14.5876 28.9996 18.3128 28.9996L18.313 29ZM3.5919 4.68916C3.71493 4.55726 3.84448 4.43366 3.97642 4.31453C3.99692 4.29569 4.01683 4.27621 4.03614 4.25545L5.82083 2.33758C5.99466 2.15042 6.22584 2.04758 6.47158 2.04758C6.71762 2.04758 6.9488 2.15042 7.12293 2.33758L10.478 5.94398C10.6679 6.14838 10.7633 6.41953 10.746 6.70729C10.7288 6.99505 10.6022 7.25055 10.3897 7.42717L7.18377 10.0879C6.67981 10.5063 6.52143 11.2511 6.80699 11.8598C7.77187 13.9163 9.06886 15.8271 10.6619 17.5394C12.2621 19.2596 14.0497 20.6587 15.9756 21.6977C16.5408 22.0024 17.2328 21.8321 17.6212 21.2917L20.0908 17.8543C20.2548 17.6259 20.4929 17.4899 20.7606 17.4716C21.0292 17.4506 21.2806 17.5556 21.4705 17.7594L24.8259 21.3658C25.1848 21.7516 25.1845 22.3798 24.8259 22.7656L22.6178 25.1389C19.3203 28.6821 13.106 26.9527 7.50491 20.9324C1.90486 14.9117 0.295516 8.23244 3.59202 4.68891L3.5919 4.68916Z" fill="white"/>
</svg>
