<svg width="67" height="62" viewBox="0 0 67 62" fill="none" xmlns="http://www.w3.org/2000/svg">
<path d="M34.2614 5.63635C18.74 5.63635 6.09091 17.3139 6.09091 31.7045C6.09091 46.0952 18.7102 57.7727 34.2614 57.7727C49.7827 57.7727 62.4318 46.0952 62.4318 31.7045C62.4306 17.3127 49.8125 5.63635 34.2614 5.63635ZM34.2614 52.262C21.9979 52.262 12.0156 43.0247 12.0156 31.6763C12.0156 20.328 21.9979 11.0907 34.2614 11.0907C46.5249 11.0907 56.5072 20.3556 56.5072 31.704C56.5072 43.0523 46.5249 52.262 34.2614 52.262Z" fill="#0E9F2E" fill-opacity="0.6"/>
<path d="M34.2614 18.3182C26.291 18.3182 19.7955 24.3148 19.7955 31.7046C19.7955 39.0944 26.2756 45.091 34.2614 45.091C42.2318 45.091 48.7273 39.0944 48.7273 31.7046C48.7266 24.3142 42.2471 18.3182 34.2614 18.3182ZM34.2614 42.2611C27.9639 42.2611 22.8379 37.5176 22.8379 31.6901C22.8379 25.8626 27.9639 21.1191 34.2614 21.1191C40.5589 21.1191 45.6849 25.8768 45.6849 31.7043C45.6849 37.5318 40.5589 42.2611 34.2614 42.2611Z" fill="#0E9F2E" fill-opacity="0.6"/>
<path d="M34.2614 28.1818C32.1639 28.1818 30.4545 29.7598 30.4545 31.7045C30.4545 33.6492 32.1599 35.2272 34.2614 35.2272C36.3588 35.2272 38.0682 33.6492 38.0682 31.7045C38.068 29.7597 36.3629 28.1818 34.2614 28.1818ZM33.9417 28.9345C32.2844 28.9345 34.2614 33.238 34.2614 31.7045C34.2614 30.1709 32.6041 28.9188 34.2614 28.9188C35.9186 28.9188 33.9417 27.5702 33.9417 29.1037C33.9417 30.6373 35.5989 28.9345 33.9417 28.9345Z" fill="#0E9F2E" fill-opacity="0.6"/>
</svg>
