<svg width="23" height="23" viewBox="0 0 23 23" fill="none" xmlns="http://www.w3.org/2000/svg">
<path d="M20.7712 21.4919C20.5879 21.4919 20.4047 21.422 20.2648 21.2821L11.8271 12.8428C11.5474 12.5629 11.5474 12.1096 11.8271 11.8298C12.1069 11.5499 12.5602 11.5499 12.84 11.8298L21.2776 20.269C21.5574 20.5489 21.5574 21.0022 21.2776 21.2821C21.1377 21.422 20.9544 21.4919 20.7712 21.4919Z" fill="#A8D1E7"/>
<path d="M8.11442 14.7973C6.40353 14.7973 4.69195 14.1457 3.38955 12.8427C0.78405 10.2366 0.78405 5.99671 3.38955 3.39069C4.65138 2.12826 6.32939 1.43286 8.11442 1.43286C9.90015 1.43286 11.5782 2.12826 12.84 3.39069C15.4455 5.99671 15.4455 10.2366 12.84 12.8427C11.5376 14.1457 9.82601 14.7973 8.11442 14.7973ZM8.11442 2.86564C6.7127 2.86564 5.39421 3.41168 4.40237 4.40372C2.35574 6.4511 2.35574 9.78225 4.40237 11.8296C6.4497 13.8774 9.78124 13.876 11.8272 11.8296C13.8738 9.78225 13.8738 6.4511 11.8272 4.40372C10.8353 3.41168 9.51684 2.86564 8.11442 2.86564Z" fill="#A8D1E7"/>
</svg>
