<svg width="25" height="25" viewBox="0 0 25 25" fill="none" xmlns="http://www.w3.org/2000/svg">
<path d="M21.8286 4.65839H3.82861C3.53024 4.65839 3.2441 4.77691 3.03312 4.98789C2.82214 5.19887 2.70361 5.48502 2.70361 5.78339V18.5334C2.70361 19.0307 2.90116 19.5076 3.25279 19.8592C3.60442 20.2108 4.08133 20.4084 4.57861 20.4084H21.0786C21.5759 20.4084 22.0528 20.2108 22.4044 19.8592C22.7561 19.5076 22.9536 19.0307 22.9536 18.5334V5.78339C22.9536 5.48502 22.8351 5.19887 22.6241 4.98789C22.4131 4.77691 22.127 4.65839 21.8286 4.65839ZM12.8286 12.5071L6.7208 6.90839H18.9364L12.8286 12.5071ZM9.52768 12.5334L4.95361 16.7259V8.34089L9.52768 12.5334ZM11.1927 14.0596L12.0683 14.8631C12.2758 15.0533 12.5471 15.1589 12.8286 15.1589C13.1101 15.1589 13.3814 15.0533 13.5889 14.8631L14.4646 14.0596L18.9364 18.1584H6.7208L11.1927 14.0596ZM16.1296 12.5334L20.7036 8.34089V16.7259L16.1296 12.5334Z" fill="black" fill-opacity="0.4"/>
</svg>
